<?xml version="1.0" encoding="utf-8"?>
<!-- Generator: Adobe Illustrator 25.0.1, SVG Export Plug-In . SVG Version: 6.00 Build 0)  -->
<svg version="1.1" id="Layer_1" xmlns="http://www.w3.org/2000/svg" xmlns:xlink="http://www.w3.org/1999/xlink" x="0px" y="0px"
	 viewBox="0 0 100 90.4" style="enable-background:new 0 0 100 90.4;" xml:space="preserve">
<g>
	<path d="M82,62.6v-8h-8v8c0,2.2-1.8,4-4,4H30c-2.2,0-4-1.8-4-4s1.8-4,4-4s4-1.8,4-4v-8c0-2.2-1.8-4-4-4s-4-1.8-4-4s1.8-4,4-4h8v-8
		h-8c-6.6,0-12,5.4-12,12v24c0,6.6,5.4,12,12,12h40C76.6,74.6,82,69.2,82,62.6z"/>
	<path d="M54,38.6v-6h-8v6c0,4.4,3.6,8,8,8h6v-8H54z"/>
	<path d="M60,18.6v-8h-6c-4.4,0-8,3.6-8,8v6h8v-6H60z"/>
	<path d="M68,10.6v8h6v6h8v-6c0-4.4-3.6-8-8-8H68z"/>
	<path d="M74,46.6c4.4,0,8-3.6,8-8v-6h-8v6h-6v8H74z"/>
	<circle cx="64" cy="28.6" r="4"/>
</g>
</svg>
