<?xml version="1.0" encoding="utf-8"?>
<!-- Generator: Adobe Illustrator 25.0.1, SVG Export Plug-In . SVG Version: 6.00 Build 0)  -->
<svg version="1.1" id="Layer_1" xmlns="http://www.w3.org/2000/svg" xmlns:xlink="http://www.w3.org/1999/xlink" x="0px" y="0px"
	 viewBox="0 0 125.8 102.1" style="enable-background:new 0 0 125.8 102.1;" xml:space="preserve">
<g>
	<path d="M58.7,16.3c-22.4,0-40.6,18.2-40.6,40.6s18.2,40.6,40.6,40.6s40.6-18.2,40.6-40.6S81.1,16.3,58.7,16.3z M58.7,90.5
		c-18.5,0-33.6-15.1-33.6-33.6s15.1-33.6,33.6-33.6s33.6,15.1,33.6,33.6S77.2,90.5,58.7,90.5z"/>
	<path d="M77.8,56.7c-3.4,0.5-10.9,0.9-19,0.9c-8.2,0-15.6-0.4-19-0.9c-1.8-0.3-3.6,0.4-4.7,1.7c-1,1.1-1.4,2.6-1.3,4
		c1.5,12.7,12.3,22.3,25.1,22.3S82.5,75.1,84,62.4c0.2-1.5-0.3-2.9-1.3-4C81.3,57.1,79.5,56.4,77.8,56.7z M58.7,77.7
		c-8.4,0-15.6-5.7-17.6-13.7c4.2,0.4,10.6,0.7,17.6,0.7s13.4-0.2,17.6-0.7C74.3,71.9,67.1,77.7,58.7,77.7z"/>
	<path d="M109.6,14.3h-8.3V6c0-1.9-1.6-3.5-3.5-3.5S94.3,4.1,94.3,6v8.3H86c-1.9,0-3.5,1.6-3.5,3.5s1.6,3.5,3.5,3.5h8.3v8.3
		c0,1.9,1.6,3.5,3.5,3.5s3.5-1.6,3.5-3.5v-8.3h8.3c1.9,0,3.5-1.6,3.5-3.5S111.5,14.3,109.6,14.3z"/>
	<path d="M74,49.2c0.2-0.2,0.5-0.4,1-0.4s0.8,0.2,1,0.4c0.7,0.7,1.6,1,2.5,1s1.8-0.3,2.5-1c1.4-1.4,1.4-3.6,0-5
		c-1.6-1.6-3.7-2.4-5.9-2.4c-2.2,0-4.3,0.9-5.9,2.4c-1.4,1.4-1.4,3.6,0,5C70.4,50.5,72.6,50.5,74,49.2z"/>
	<path d="M41.5,49.2c0.2-0.2,0.5-0.4,1-0.4s0.8,0.2,1,0.4c0.7,0.7,1.6,1,2.5,1c0.9,0,1.8-0.3,2.5-1c1.4-1.4,1.4-3.6,0-5
		c-1.6-1.6-3.7-2.4-5.9-2.4c-2.2,0-4.3,0.9-5.9,2.4c-1.4,1.4-1.4,3.6,0,5C37.9,50.5,40.1,50.5,41.5,49.2z"/>
</g>
</svg>
